<?xml version="1.0" encoding="UTF-8" standalone="no"?>
<!DOCTYPE svg PUBLIC "-//W3C//DTD SVG 1.1//EN"
 "http://www.w3.org/Graphics/SVG/1.1/DTD/svg11.dtd">
<!-- Generated by graphviz version 14.1.2 (20260124.0452)
 -->
<!-- Title: sqli_flow Pages: 1 -->
<svg width="631pt" height="1022pt"
 viewBox="0.00 0.00 631.00 1022.00" xmlns="http://www.w3.org/2000/svg" xmlns:xlink="http://www.w3.org/1999/xlink">
<g id="graph0" class="graph" transform="scale(1 1) rotate(0) translate(4 1017.9)">
<title>sqli_flow</title>
<polygon fill="white" stroke="none" points="-4,4 -4,-1017.9 626.56,-1017.9 626.56,4 -4,4"/>
<!-- S -->
<g id="node1" class="node">
<title>S</title>
<ellipse fill="none" stroke="black" cx="260.87" cy="-995.9" rx="28.32" ry="18"/>
<text xml:space="preserve" text-anchor="middle" x="260.87" y="-990.85" font-family="Times New Roman,serif" font-size="14.00">Start</text>
</g>
<!-- A -->
<g id="node2" class="node">
<title>A</title>
<ellipse fill="none" stroke="black" cx="260.87" cy="-911.91" rx="89.8" ry="28.99"/>
<text xml:space="preserve" text-anchor="middle" x="260.87" y="-915.11" font-family="Times New Roman,serif" font-size="14.00">Application requires</text>
<text xml:space="preserve" text-anchor="middle" x="260.87" y="-898.61" font-family="Times New Roman,serif" font-size="14.00">database interaction</text>
</g>
<!-- S&#45;&gt;A -->
<g id="edge1" class="edge">
<title>S&#45;&gt;A</title>
<path fill="none" stroke="black" d="M260.87,-977.51C260.87,-970.19 260.87,-961.34 260.87,-952.58"/>
<polygon fill="black" stroke="black" points="264.37,-952.75 260.87,-942.75 257.37,-952.75 264.37,-952.75"/>
</g>
<!-- B -->
<g id="node3" class="node">
<title>B</title>
<ellipse fill="none" stroke="black" cx="260.87" cy="-827.91" rx="84.62" ry="18"/>
<text xml:space="preserve" text-anchor="middle" x="260.87" y="-822.86" font-family="Times New Roman,serif" font-size="14.00">User input accepted</text>
</g>
<!-- A&#45;&gt;B -->
<g id="edge2" class="edge">
<title>A&#45;&gt;B</title>
<path fill="none" stroke="black" d="M260.87,-882.69C260.87,-874.47 260.87,-865.49 260.87,-857.27"/>
<polygon fill="black" stroke="black" points="264.37,-857.45 260.87,-847.45 257.37,-857.45 264.37,-857.45"/>
</g>
<!-- C -->
<g id="node4" class="node">
<title>C</title>
<ellipse fill="none" stroke="black" cx="260.87" cy="-743.92" rx="104.12" ry="28.99"/>
<text xml:space="preserve" text-anchor="middle" x="260.87" y="-747.12" font-family="Times New Roman,serif" font-size="14.00">User input concatenated</text>
<text xml:space="preserve" text-anchor="middle" x="260.87" y="-730.62" font-family="Times New Roman,serif" font-size="14.00">directly into SQL query</text>
</g>
<!-- B&#45;&gt;C -->
<g id="edge3" class="edge">
<title>B&#45;&gt;C</title>
<path fill="none" stroke="black" d="M260.87,-809.53C260.87,-802.2 260.87,-793.36 260.87,-784.59"/>
<polygon fill="black" stroke="black" points="264.37,-784.77 260.87,-774.77 257.37,-784.77 264.37,-784.77"/>
</g>
<!-- D -->
<g id="node5" class="node">
<title>D</title>
<polygon fill="lightyellow" stroke="black" points="260.87,-677.93 159.37,-620.43 260.87,-562.93 362.37,-620.43 260.87,-677.93"/>
<text xml:space="preserve" text-anchor="middle" x="260.87" y="-631.88" font-family="Times New Roman,serif" font-size="14.00">Decision:</text>
<text xml:space="preserve" text-anchor="middle" x="260.87" y="-615.38" font-family="Times New Roman,serif" font-size="14.00">Input validated/</text>
<text xml:space="preserve" text-anchor="middle" x="260.87" y="-598.88" font-family="Times New Roman,serif" font-size="14.00">sanitised?</text>
</g>
<!-- C&#45;&gt;D -->
<g id="edge4" class="edge">
<title>C&#45;&gt;D</title>
<path fill="none" stroke="black" d="M260.87,-714.44C260.87,-706.93 260.87,-698.49 260.87,-689.84"/>
<polygon fill="black" stroke="black" points="264.37,-689.93 260.87,-679.93 257.37,-689.93 264.37,-689.93"/>
</g>
<!-- E1 -->
<g id="node6" class="node">
<title>E1</title>
<ellipse fill="lightgreen" stroke="black" cx="125.87" cy="-481.44" rx="125.87" ry="28.99"/>
<text xml:space="preserve" text-anchor="middle" x="125.87" y="-484.64" font-family="Times New Roman,serif" font-size="14.00">Secure path:</text>
<text xml:space="preserve" text-anchor="middle" x="125.87" y="-468.14" font-family="Times New Roman,serif" font-size="14.00">parameterised queries / ORM</text>
</g>
<!-- D&#45;&gt;E1 -->
<g id="edge5" class="edge">
<title>D&#45;&gt;E1</title>
<path fill="none" stroke="black" d="M225.04,-583.08C205.13,-562.88 180.47,-537.85 160.71,-517.8"/>
<polygon fill="black" stroke="black" points="163.43,-515.57 153.92,-510.91 158.44,-520.49 163.43,-515.57"/>
<text xml:space="preserve" text-anchor="middle" x="195.41" y="-531.63" font-family="Times New Roman,serif" font-size="14.00">Yes</text>
</g>
<!-- E2 -->
<g id="node8" class="node">
<title>E2</title>
<ellipse fill="lightcoral" stroke="black" cx="396.87" cy="-481.44" rx="126.93" ry="28.99"/>
<text xml:space="preserve" text-anchor="middle" x="396.87" y="-484.64" font-family="Times New Roman,serif" font-size="14.00">No parameterised queries</text>
<text xml:space="preserve" text-anchor="middle" x="396.87" y="-468.14" font-family="Times New Roman,serif" font-size="14.00">(prepared statements omitted)</text>
</g>
<!-- D&#45;&gt;E2 -->
<g id="edge7" class="edge">
<title>D&#45;&gt;E2</title>
<path fill="none" stroke="black" d="M296.95,-583.08C317.01,-562.88 341.86,-537.85 361.76,-517.8"/>
<polygon fill="black" stroke="black" points="364.05,-520.47 368.61,-510.9 359.08,-515.53 364.05,-520.47"/>
<text xml:space="preserve" text-anchor="middle" x="357.24" y="-531.63" font-family="Times New Roman,serif" font-size="14.00">No</text>
</g>
<!-- F1 -->
<g id="node7" class="node">
<title>F1</title>
<ellipse fill="lightgreen" stroke="black" cx="125.87" cy="-357.95" rx="80.01" ry="18"/>
<text xml:space="preserve" text-anchor="middle" x="125.87" y="-352.9" font-family="Times New Roman,serif" font-size="14.00">End: No weakness</text>
</g>
<!-- E1&#45;&gt;F1 -->
<g id="edge6" class="edge">
<title>E1&#45;&gt;F1</title>
<path fill="none" stroke="black" d="M125.87,-451.96C125.87,-432.65 125.87,-407.21 125.87,-387.83"/>
<polygon fill="black" stroke="black" points="129.37,-387.88 125.87,-377.88 122.37,-387.88 129.37,-387.88"/>
</g>
<!-- F2 -->
<g id="node9" class="node">
<title>F2</title>
<polygon fill="lightyellow" stroke="black" points="396.87,-415.45 295.37,-357.95 396.87,-300.45 498.37,-357.95 396.87,-415.45"/>
<text xml:space="preserve" text-anchor="middle" x="396.87" y="-369.4" font-family="Times New Roman,serif" font-size="14.00">Decision:</text>
<text xml:space="preserve" text-anchor="middle" x="396.87" y="-352.9" font-family="Times New Roman,serif" font-size="14.00">Security review</text>
<text xml:space="preserve" text-anchor="middle" x="396.87" y="-336.4" font-family="Times New Roman,serif" font-size="14.00">performed?</text>
</g>
<!-- E2&#45;&gt;F2 -->
<g id="edge8" class="edge">
<title>E2&#45;&gt;F2</title>
<path fill="none" stroke="black" d="M396.87,-451.96C396.87,-444.45 396.87,-436.01 396.87,-427.36"/>
<polygon fill="black" stroke="black" points="400.37,-427.45 396.87,-417.45 393.37,-427.45 400.37,-427.45"/>
</g>
<!-- G1 -->
<g id="node10" class="node">
<title>G1</title>
<ellipse fill="lightgreen" stroke="black" cx="266.87" cy="-218.96" rx="108.89" ry="28.99"/>
<text xml:space="preserve" text-anchor="middle" x="266.87" y="-222.16" font-family="Times New Roman,serif" font-size="14.00">Secure path:</text>
<text xml:space="preserve" text-anchor="middle" x="266.87" y="-205.66" font-family="Times New Roman,serif" font-size="14.00">issue fixed before release</text>
</g>
<!-- F2&#45;&gt;G1 -->
<g id="edge9" class="edge">
<title>F2&#45;&gt;G1</title>
<path fill="none" stroke="black" d="M361.69,-319.88C342.74,-299.91 319.47,-275.39 300.73,-255.64"/>
<polygon fill="black" stroke="black" points="303.46,-253.44 294.04,-248.59 298.38,-258.25 303.46,-253.44"/>
<text xml:space="preserve" text-anchor="middle" x="334.21" y="-269.15" font-family="Times New Roman,serif" font-size="14.00">Yes</text>
</g>
<!-- G2 -->
<g id="node12" class="node">
<title>G2</title>
<ellipse fill="lightcoral" stroke="black" cx="486.87" cy="-218.96" rx="90.25" ry="18"/>
<text xml:space="preserve" text-anchor="middle" x="486.87" y="-213.91" font-family="Times New Roman,serif" font-size="14.00">Deploy to production</text>
</g>
<!-- F2&#45;&gt;G2 -->
<g id="edge11" class="edge">
<title>F2&#45;&gt;G2</title>
<path fill="none" stroke="black" d="M424.11,-315.47C438.83,-293.08 456.56,-266.09 469.41,-246.52"/>
<polygon fill="black" stroke="black" points="472.25,-248.57 474.82,-238.29 466.4,-244.73 472.25,-248.57"/>
<text xml:space="preserve" text-anchor="middle" x="463.44" y="-269.15" font-family="Times New Roman,serif" font-size="14.00">No</text>
</g>
<!-- H1 -->
<g id="node11" class="node">
<title>H1</title>
<ellipse fill="lightgreen" stroke="black" cx="260.87" cy="-123.97" rx="80.01" ry="18"/>
<text xml:space="preserve" text-anchor="middle" x="260.87" y="-118.92" font-family="Times New Roman,serif" font-size="14.00">End: No weakness</text>
</g>
<!-- G1&#45;&gt;H1 -->
<g id="edge10" class="edge">
<title>G1&#45;&gt;H1</title>
<path fill="none" stroke="black" d="M265.03,-189.55C264.3,-178.14 263.45,-165 262.71,-153.56"/>
<polygon fill="black" stroke="black" points="266.22,-153.67 262.09,-143.92 259.24,-154.12 266.22,-153.67"/>
</g>
<!-- H2 -->
<g id="node13" class="node">
<title>H2</title>
<ellipse fill="lightcoral" stroke="black" cx="490.87" cy="-123.97" rx="131.7" ry="28.99"/>
<text xml:space="preserve" text-anchor="middle" x="490.87" y="-127.17" font-family="Times New Roman,serif" font-size="14.00">Exploitation:</text>
<text xml:space="preserve" text-anchor="middle" x="490.87" y="-110.67" font-family="Times New Roman,serif" font-size="14.00">attacker injects malicious input</text>
</g>
<!-- G2&#45;&gt;H2 -->
<g id="edge12" class="edge">
<title>G2&#45;&gt;H2</title>
<path fill="none" stroke="black" d="M487.62,-200.47C488.05,-190.32 488.62,-177.1 489.16,-164.56"/>
<polygon fill="black" stroke="black" points="492.65,-165 489.58,-154.86 485.65,-164.7 492.65,-165"/>
</g>
<!-- I2 -->
<g id="node14" class="node">
<title>I2</title>
<ellipse fill="lightcoral" stroke="black" cx="490.87" cy="-28.99" rx="104.12" ry="28.99"/>
<text xml:space="preserve" text-anchor="middle" x="490.87" y="-32.19" font-family="Times New Roman,serif" font-size="14.00">End: Injection exploited</text>
<text xml:space="preserve" text-anchor="middle" x="490.87" y="-15.69" font-family="Times New Roman,serif" font-size="14.00">(e.g., data breach)</text>
</g>
<!-- H2&#45;&gt;I2 -->
<g id="edge13" class="edge">
<title>H2&#45;&gt;I2</title>
<path fill="none" stroke="black" d="M490.87,-94.57C490.87,-86.73 490.87,-78.08 490.87,-69.72"/>
<polygon fill="black" stroke="black" points="494.37,-69.73 490.87,-59.73 487.37,-69.73 494.37,-69.73"/>
</g>
</g>
</svg>
